<svg width="34" height="34" viewBox="0 0 34 34" fill="none" xmlns="http://www.w3.org/2000/svg">
  <path d="M17 1C8.17867 1 1 8.17867 1 17C1 25.8213 8.17867 33 17 33C25.8213 33 33 25.8213 33 17C33 8.17867 25.8213 1 17 1ZM17 3.66667C24.38 3.66667 30.3333 9.62 30.3333 17C30.3366 20.192 29.192 23.2787 27.1085 25.6968C25.0249 28.1149 22.1414 29.7033 18.984 30.172V20.888H22.7813L23.3773 17.0307H18.984V14.924C18.984 13.324 19.5107 11.9013 21.008 11.9013H23.4147V8.536C22.992 8.47867 22.0973 8.35467 20.4067 8.35467C16.876 8.35467 14.8067 10.2187 14.8067 14.4667V17.0307H11.1773V20.888H14.8067V30.1387C11.693 29.6262 8.86298 28.0233 6.82226 25.6165C4.78153 23.2096 3.66305 20.1556 3.66667 17C3.66667 9.62 9.62 3.66667 17 3.66667Z" fill="currentColor"/>
</svg>
