<svg width="34" height="34" viewBox="0 0 34 34" fill="none" xmlns="http://www.w3.org/2000/svg">
  <path d="M17 3.5C13.3364 3.5 12.8758 3.51688 11.4363 3.581C9.99688 3.6485 9.01644 3.87462 8.1575 4.20875C7.25653 4.54763 6.44045 5.07921 5.76631 5.76631C5.07963 6.4408 4.54812 7.25678 4.20875 8.1575C3.87462 9.01475 3.64681 9.99687 3.581 11.4312C3.51688 12.8741 3.5 13.3331 3.5 17.0017C3.5 20.6669 3.51688 21.1259 3.581 22.5654C3.6485 24.0031 3.87462 24.9836 4.20875 25.8425C4.55469 26.7301 5.01538 27.4827 5.76631 28.2337C6.51556 28.9846 7.26819 29.447 8.15581 29.7912C9.01644 30.1254 9.99519 30.3532 11.4329 30.419C12.8741 30.4831 13.3331 30.5 17 30.5C20.6669 30.5 21.1243 30.4831 22.5654 30.419C24.0014 30.3515 24.9853 30.1254 25.8442 29.7912C26.7446 29.4522 27.5601 28.9206 28.2337 28.2337C28.9846 27.4827 29.4453 26.7301 29.7912 25.8425C30.1237 24.9836 30.3515 24.0031 30.419 22.5654C30.4831 21.1259 30.5 20.6669 30.5 17C30.5 13.3331 30.4831 12.8741 30.419 11.4329C30.3515 9.99688 30.1237 9.01475 29.7912 8.1575C29.4519 7.25676 28.9204 6.44077 28.2337 5.76631C27.5598 5.07895 26.7436 4.54734 25.8425 4.20875C24.9819 3.87462 23.9997 3.64681 22.5637 3.581C21.1226 3.51688 20.6653 3.5 16.9966 3.5H17.0017H17ZM15.7901 5.93338H17.0017C20.6062 5.93338 21.0331 5.94519 22.4557 6.011C23.7719 6.07006 24.4874 6.29113 24.9633 6.47506C25.5927 6.71975 26.0433 7.01337 26.5158 7.48587C26.9883 7.95837 27.2803 8.40725 27.5249 9.03838C27.7106 9.51256 27.9299 10.2281 27.989 11.5443C28.0548 12.9669 28.0683 13.3938 28.0683 16.9966C28.0683 20.5994 28.0548 21.0281 27.989 22.4506C27.9299 23.7669 27.7089 24.4807 27.5249 24.9566C27.3085 25.5427 26.963 26.0727 26.5141 26.5074C26.0416 26.9799 25.5928 27.2718 24.9616 27.5165C24.4891 27.7021 23.7736 27.9215 22.4557 27.9823C21.0331 28.0464 20.6062 28.0616 17.0017 28.0616C13.3972 28.0616 12.9686 28.0464 11.546 27.9823C10.2298 27.9215 9.51594 27.7021 9.04006 27.5165C8.45365 27.3004 7.92315 26.9555 7.48756 26.5074C7.03827 26.0721 6.69228 25.5415 6.47506 24.9549C6.29113 24.4807 6.07006 23.7652 6.011 22.4489C5.94688 21.0264 5.93338 20.5994 5.93338 16.9932C5.93338 13.3887 5.94688 12.9635 6.011 11.5409C6.07175 10.2247 6.29113 9.50919 6.47675 9.03331C6.72144 8.40388 7.01506 7.95331 7.48756 7.48081C7.96006 7.00831 8.40894 6.71638 9.04006 6.47169C9.51594 6.28606 10.2298 6.06669 11.546 6.00594C12.7914 5.94856 13.274 5.93169 15.7901 5.93V5.93338ZM24.2073 8.17437C23.9946 8.17437 23.7839 8.21628 23.5874 8.29769C23.3908 8.3791 23.2122 8.49843 23.0618 8.64886C22.9114 8.79929 22.792 8.97788 22.7106 9.17443C22.6292 9.37098 22.5873 9.58163 22.5873 9.79438C22.5873 10.0071 22.6292 10.2178 22.7106 10.4143C22.792 10.6109 22.9114 10.7895 23.0618 10.9399C23.2122 11.0903 23.3908 11.2096 23.5874 11.2911C23.7839 11.3725 23.9946 11.4144 24.2073 11.4144C24.637 11.4144 25.049 11.2437 25.3528 10.9399C25.6566 10.6361 25.8273 10.224 25.8273 9.79438C25.8273 9.36472 25.6566 8.95267 25.3528 8.64886C25.049 8.34505 24.637 8.17437 24.2073 8.17437ZM17.0017 10.0677C16.0821 10.0534 15.1689 10.2221 14.3152 10.5641C13.4614 10.9061 12.6842 11.4145 12.0289 12.0597C11.3735 12.7049 10.8531 13.4741 10.4978 14.3224C10.1425 15.1707 9.95958 16.0812 9.95958 17.0008C9.95958 17.9205 10.1425 18.831 10.4978 19.6793C10.8531 20.5276 11.3735 21.2968 12.0289 21.942C12.6842 22.5872 13.4614 23.0956 14.3152 23.4376C15.1689 23.7796 16.0821 23.9483 17.0017 23.9339C18.8217 23.9055 20.5576 23.1626 21.8346 21.8655C23.1117 20.5684 23.8275 18.8211 23.8275 17.0008C23.8275 15.1806 23.1117 13.4333 21.8346 12.1362C20.5576 10.8391 18.8217 10.0961 17.0017 10.0677ZM17.0017 12.4994C18.1953 12.4994 19.34 12.9736 20.1841 13.8176C21.0281 14.6616 21.5023 15.8064 21.5023 17C21.5023 18.1936 21.0281 19.3384 20.1841 20.1824C19.34 21.0264 18.1953 21.5006 17.0017 21.5006C15.8081 21.5006 14.6633 21.0264 13.8193 20.1824C12.9753 19.3384 12.5011 18.1936 12.5011 17C12.5011 15.8064 12.9753 14.6616 13.8193 13.8176C14.6633 12.9736 15.8081 12.4994 17.0017 12.4994Z" fill="currentColor"/>
</svg>
