<svg width="34" height="34" viewBox="0 0 34 34" fill="none" xmlns="http://www.w3.org/2000/svg">
  <path d="M10.2224 28.561C11.1664 28.145 12.2224 28.0666 13.2112 28.3386C14.4432 28.6746 15.7152 28.8442 17 28.841C24.336 28.841 29.8 23.5816 29.8 16.5206C29.8 9.45951 24.336 4.20012 17 4.20012C9.664 4.20012 4.2 9.45951 4.2 16.5206C4.2 20.1527 5.6336 23.356 8.1456 25.6025C8.60201 26.0068 8.9711 26.5 9.23026 27.0519C9.48942 27.6038 9.6332 28.2028 9.6528 28.8122L10.2224 28.561ZM17 1C26.0128 1 33 7.60344 33 16.5206C33 25.4377 26.0128 32.0411 17 32.0411C15.4354 32.0452 13.8774 31.8385 12.368 31.4267C12.0845 31.3488 11.7828 31.3708 11.5136 31.4891L8.3376 32.8908C8.14581 32.9755 7.93613 33.0119 7.727 32.9966C7.51787 32.9813 7.31569 32.9149 7.13824 32.8032C6.96079 32.6915 6.8135 32.5379 6.70933 32.3559C6.60515 32.1739 6.54728 31.9691 6.5408 31.7595L6.4544 28.9114C6.44843 28.7381 6.40719 28.5679 6.33318 28.411C6.25918 28.2542 6.15398 28.1142 6.024 27.9994C2.912 25.2153 1 21.1863 1 16.5206C1 7.60344 7.9856 1 17 1ZM7.392 21.0599L12.0912 13.6037C12.268 13.3229 12.5011 13.0819 12.7757 12.8958C13.0504 12.7097 13.3606 12.5826 13.6869 12.5225C14.0131 12.4623 14.3483 12.4705 14.6713 12.5464C14.9942 12.6223 15.2979 12.7644 15.5632 12.9636L19.3008 15.7637C19.4674 15.8895 19.6705 15.9575 19.8792 15.9575C20.0879 15.9575 20.291 15.8895 20.4576 15.7637L25.5056 11.93C26.1792 11.4196 27.0592 12.226 26.608 12.9428L21.9072 20.3991C21.7304 20.6794 21.4974 20.92 21.2231 21.1057C20.9487 21.2915 20.6388 21.4185 20.3129 21.4786C19.9871 21.5387 19.6523 21.5307 19.3297 21.4551C19.007 21.3795 18.7036 21.2378 18.4384 21.0391L14.6992 18.239C14.5326 18.1133 14.3295 18.0452 14.1208 18.0452C13.9121 18.0452 13.709 18.1133 13.5424 18.239L8.4944 22.0712C7.8208 22.5816 6.9408 21.7768 7.392 21.0599Z" fill="currentColor"/>
</svg>
