<svg width="34" height="34" viewBox="0 0 34 34" fill="none" xmlns="http://www.w3.org/2000/svg">
  <circle cx="17" cy="17" r="15" stroke="currentColor" stroke-width="2"/>
  <path d="M23.1366 10.0001C23.267 9.99755 23.5553 10.03 23.7432 10.1816C23.868 10.2893 23.9476 10.4397 23.9662 10.6029C23.9871 10.7235 24.0132 10.9996 23.9923 11.2148C23.7575 13.6753 22.7374 19.6436 22.2182 22.3984C21.9991 23.5651 21.5673 23.9553 21.1486 23.9929C20.2407 24.0771 19.5506 23.3966 18.6701 22.8236C17.2925 21.9252 16.5138 21.3665 15.1767 20.4902C13.6309 19.479 14.6327 18.9216 15.5132 18.0141C15.7441 17.7756 19.7489 14.1549 19.8271 13.8269C19.8363 13.7855 19.8454 13.6325 19.7541 13.5521C19.6628 13.4717 19.5271 13.499 19.4293 13.521C19.291 13.5521 17.0903 14.9988 12.8273 17.8573C12.2012 18.2851 11.6363 18.4925 11.1289 18.4795C10.5706 18.4692 9.49567 18.1671 8.69603 17.9091C7.71506 17.5915 6.93629 17.4243 7.00412 16.8863C7.03934 16.6063 7.42807 16.3198 8.16902 16.0268C12.7321 14.0512 15.7741 12.7484 17.2978 12.1197C21.6443 10.3229 22.5483 10.0105 23.1366 10.0001Z" fill="currentColor"/>
</svg>
