<svg width="34" height="34" viewBox="0 0 34 34" fill="none" xmlns="http://www.w3.org/2000/svg">
  <circle cx="17" cy="17" r="15" stroke="currentColor" stroke-width="2"/>
  <path d="M21.44 10.82C20.7564 10.0396 20.3797 9.03743 20.38 8H17.29V20.4C17.2662 21.071 16.9829 21.7066 16.4998 22.1729C16.0167 22.6393 15.3714 22.8999 14.7 22.9C13.28 22.9 12.1 21.74 12.1 20.3C12.1 18.58 13.76 17.29 15.47 17.82V14.66C12.02 14.2 9 16.88 9 20.3C9 23.63 11.76 26 14.69 26C17.83 26 20.38 23.45 20.38 20.3V14.01C21.633 14.9099 23.1374 15.3926 24.68 15.39V12.3C24.68 12.3 22.8 12.39 21.44 10.82Z" fill="currentColor"/>
</svg>
