<svg width="34" height="34" viewBox="0 0 34 34" fill="none" xmlns="http://www.w3.org/2000/svg">
  <path d="M10.8842 7.3466C10.5953 7.30404 10.3007 7.3629 10.0494 7.51338H10.0277C9.44468 7.85953 8.91922 8.29536 8.4715 8.80829C8.09839 9.24412 7.8963 9.68467 7.84344 10.1095C7.81235 10.3612 7.83411 10.6161 7.90718 10.8569L7.93516 10.8726C8.3549 12.1203 8.90212 13.3208 9.5706 14.4505C10.4325 16.0372 11.4933 17.5048 12.7264 18.8167L12.7637 18.8702L12.8228 18.9142L12.8586 18.9567L12.9021 18.9945C14.2029 20.2463 15.6563 21.325 17.227 22.2042C19.0226 23.1939 20.1123 23.6612 20.7668 23.8563V23.8657C20.958 23.9255 21.1321 23.9522 21.3078 23.9522C21.8652 23.9106 22.3928 23.6812 22.8065 23.3009C23.3117 22.8477 23.7392 22.3143 24.0719 21.7212V21.7102C24.3844 21.1123 24.2787 20.549 23.8278 20.1667C22.9223 19.3658 21.9431 18.6546 20.9036 18.0426C20.2072 17.6602 19.4998 17.8915 19.2138 18.2786L18.6028 19.059C18.2888 19.446 17.7198 19.3925 17.7198 19.3925L17.7043 19.402C13.4587 18.3053 12.3253 13.9549 12.3253 13.9549C12.3253 13.9549 12.2725 13.3633 12.6658 13.0612L13.4307 12.4381C13.7976 12.136 14.0525 11.4217 13.6592 10.7168C13.0585 9.66384 12.3571 8.67309 11.5651 7.75883C11.3924 7.54366 11.1502 7.39712 10.8811 7.34503L10.8842 7.3466ZM18.0587 5.45537C17.8526 5.45537 17.6548 5.53826 17.5091 5.68579C17.3633 5.83333 17.2814 6.03343 17.2814 6.24207C17.2814 6.45072 17.3633 6.65082 17.5091 6.79835C17.6548 6.94589 17.8526 7.02877 18.0587 7.02877C20.0237 7.02877 21.656 7.67859 22.9479 8.92472C23.6117 9.606 24.1294 10.4132 24.4683 11.2974C24.8088 12.1832 24.9642 13.1288 24.9238 14.076C24.9152 14.2847 24.9887 14.4883 25.1284 14.642C25.268 14.7957 25.4623 14.887 25.6685 14.8958C25.8746 14.9045 26.0758 14.83 26.2277 14.6887C26.3796 14.5474 26.4698 14.3508 26.4784 14.1421C26.5266 12.977 26.3355 11.8144 25.9172 10.7278C25.4971 9.63611 24.86 8.64327 24.0455 7.81075L24.0299 7.79502C22.4271 6.24522 20.3999 5.45537 18.0587 5.45537Z" fill="currentColor"/>
  <path d="M18.0043 8.04204C17.7981 8.04204 17.6004 8.12493 17.4547 8.27246C17.3089 8.42 17.227 8.6201 17.227 8.82874C17.227 9.03739 17.3089 9.23749 17.4547 9.38502C17.6004 9.53256 17.7981 9.61544 18.0043 9.61544H18.0307C19.4485 9.71771 20.4808 10.196 21.2037 10.9812C21.9452 11.7899 22.3292 12.7953 22.2997 14.0383C22.2949 14.2469 22.3723 14.4489 22.5147 14.5998C22.6571 14.7508 22.8529 14.8383 23.0591 14.8431C23.2652 14.8479 23.4648 14.7696 23.6139 14.6254C23.7631 14.4813 23.8495 14.2831 23.8543 14.0745C23.8916 12.4428 23.3723 11.0346 22.3432 9.91124V9.90809C21.2907 8.76581 19.8465 8.16162 18.1085 8.04362L18.082 8.04047L18.0043 8.04204Z" fill="currentColor"/>
  <path d="M17.9748 10.6775C17.8707 10.6682 17.7659 10.6802 17.6666 10.7128C17.5673 10.7454 17.4754 10.798 17.3966 10.8673C17.3178 10.9366 17.2536 11.0213 17.2078 11.1163C17.162 11.2113 17.1356 11.3147 17.1302 11.4202C17.1248 11.5258 17.1404 11.6313 17.1762 11.7306C17.2119 11.8299 17.2671 11.9209 17.3384 11.9981C17.4097 12.0754 17.4956 12.1373 17.5911 12.1802C17.6865 12.2231 17.7895 12.246 17.8939 12.2477C18.5437 12.2824 18.9588 12.4806 19.22 12.7465C19.4827 13.014 19.6786 13.4435 19.7144 14.1154C19.7163 14.2209 19.7392 14.325 19.7817 14.4215C19.8243 14.5179 19.8856 14.6046 19.9619 14.6766C20.0383 14.7485 20.1282 14.8042 20.2263 14.8402C20.3243 14.8762 20.4286 14.8919 20.5327 14.8863C20.6369 14.8807 20.7389 14.854 20.8327 14.8076C20.9264 14.7613 21.01 14.6963 21.0784 14.6166C21.1468 14.5368 21.1987 14.444 21.2309 14.3436C21.2631 14.2431 21.275 14.1372 21.2658 14.032C21.2161 13.0879 20.9238 12.254 20.3253 11.6404C19.7237 11.0268 18.9044 10.7278 17.9748 10.6775Z" fill="currentColor"/>
  <path fill-rule="evenodd" clip-rule="evenodd" d="M9.48821 1.33936C14.435 0.220212 19.565 0.220212 24.5118 1.33936L25.0389 1.45737C26.4849 1.78456 27.8131 2.51112 28.8757 3.55632C29.9383 4.60152 30.6938 5.92443 31.0583 7.37807C32.3139 12.386 32.3139 17.6321 31.0583 22.64C30.6938 24.0937 29.9383 25.4166 28.8757 26.4618C27.8131 27.507 26.4849 28.2335 25.0389 28.5607L24.5103 28.6787C21.412 29.38 18.2328 29.6442 15.063 29.4639L10.9386 33.1991C10.7832 33.34 10.5931 33.4361 10.3885 33.4773C10.1838 33.5185 9.97189 33.5034 9.77495 33.4335C9.57801 33.3635 9.40322 33.2414 9.26883 33.0798C9.13445 32.9182 9.04538 32.723 9.01094 32.5147L8.32848 28.3892C7.01979 27.9771 5.8374 27.2322 4.89432 26.2256C3.95124 25.2191 3.27898 23.9845 2.94179 22.64C1.68607 17.6321 1.68607 12.386 2.94179 7.37807C3.30622 5.92443 4.06172 4.60152 5.12435 3.55632C6.18697 2.51112 7.51511 1.78456 8.9612 1.45737L9.48821 1.33936ZM24.0035 3.64125C19.3914 2.59778 14.6086 2.59778 9.99656 3.64125L9.468 3.76082C8.44308 3.99315 7.50184 4.50843 6.74881 5.24947C5.99577 5.9905 5.46041 6.92827 5.20218 7.95865C4.042 12.5856 4.042 17.4325 5.20218 22.0594C5.46054 23.09 5.99613 24.0279 6.74946 24.769C7.50278 25.51 8.44435 26.0252 9.46955 26.2573L9.60946 26.2887C9.8358 26.34 10.0419 26.4584 10.2014 26.6288C10.3609 26.7992 10.4666 27.0139 10.5049 27.2454L10.962 30.0114L13.8722 27.376C13.9884 27.2704 14.1244 27.1896 14.272 27.1382C14.4197 27.0868 14.5761 27.066 14.7319 27.077C17.8396 27.3001 20.9629 27.0643 24.0035 26.3769L24.5305 26.2573C25.5557 26.0252 26.4973 25.51 27.2506 24.769C28.0039 24.0279 28.5395 23.09 28.7979 22.0594C29.9576 17.4337 29.9576 12.586 28.7979 7.95865C28.5395 6.92807 28.0039 5.99016 27.2506 5.24911C26.4973 4.50806 25.5557 3.99289 24.5305 3.76082L24.0035 3.64125Z" fill="currentColor"/>
</svg>
