<svg width="34" height="34" viewBox="0 0 34 34" fill="none" xmlns="http://www.w3.org/2000/svg">
  <path d="M14.0303 0.5H12.1212L10.8485 5.24375L9.57576 0.5H7.45455C7.87879 1.7375 8.30303 2.76875 8.72727 4.00625C9.36364 5.65625 9.78788 7.1 9.78788 7.925V12.875H11.697V7.925L14.0303 0.5ZM19.1212 9.78125V6.6875C19.1212 5.65625 18.9091 5.0375 18.4848 4.41875C18.0606 3.8 17.4242 3.59375 16.5758 3.59375C15.7273 3.59375 15.0909 4.00625 14.6667 4.625C14.2424 5.0375 14.0303 5.65625 14.0303 6.6875V9.9875C14.0303 11.0187 14.2424 11.6375 14.6667 12.05C15.0909 12.6687 15.7273 12.875 16.5758 12.875C17.4242 12.875 18.0606 12.4625 18.4848 11.8438C18.9091 11.6375 19.1212 10.8125 19.1212 9.78125ZM17.4242 10.1937C17.4242 11.0187 17.2121 11.4313 16.5758 11.4313C15.9394 11.4313 15.7273 11.0187 15.7273 10.1937V6.275C15.7273 5.45 15.9394 5.0375 16.5758 5.0375C17.2121 5.0375 17.4242 5.45 17.4242 6.275V10.1937ZM25.4848 12.875V3.59375H23.7879V10.6063C23.3636 11.225 23.1515 11.4313 22.7273 11.4313C22.5152 11.4313 22.303 11.225 22.303 11.0187V3.59375H20.6061V10.8125C20.6061 11.4313 20.6061 11.8437 20.8182 12.2562C20.8182 12.6687 21.2424 12.875 21.8788 12.875C22.5152 12.875 23.1515 12.4625 23.7879 11.8438V12.875H25.4848ZM26.3333 22.1562C25.697 22.1562 25.4848 22.5688 25.4848 23.3938V24.2188H27.1818V23.3938C27.1818 22.5688 26.9697 22.1562 26.3333 22.1562ZM20.1818 22.1562C19.9697 22.1562 19.5455 22.3625 19.3333 22.5687V28.1375C19.5455 28.3437 19.9697 28.55 20.1818 28.55C20.6061 28.55 20.8182 28.1375 20.8182 27.3125V23.3938C20.8182 22.5688 20.6061 22.1562 20.1818 22.1562Z" fill="currentColor"/>
  <path d="M30.5758 17.6188C30.1515 16.175 28.8788 14.9375 27.6061 14.9375C24.2121 14.525 20.6061 14.525 17 14.525C13.3939 14.525 10 14.525 6.39394 14.9375C5.12121 14.9375 3.84848 16.175 3.42424 17.6188C3 19.6813 3 21.95 3 24.0125C3 26.075 3 28.3438 3.42424 30.4062C3.84848 31.85 4.90909 32.8813 6.39394 33.0875C10 33.5 13.3939 33.5 17 33.5C20.6061 33.5 24 33.5 27.6061 33.0875C29.0909 32.8813 30.3636 31.85 30.5758 30.4062C31 28.3438 31 26.075 31 24.0125C31 21.95 31 19.6813 30.5758 17.6188ZM11.0606 19.475H8.93939V29.9938H7.0303V19.475H5.12121V17.6188H11.0606V19.475ZM16.1515 29.9938H14.4545V28.9625C13.8182 29.7875 13.1818 29.9938 12.5455 29.9938C11.9091 29.9938 11.697 29.7875 11.4848 29.375C11.4848 29.1687 11.2727 28.7563 11.2727 27.9313V20.7125H12.9697V27.9313C12.9697 28.1375 13.1818 28.3438 13.3939 28.3438C13.8182 28.3438 14.0303 28.1375 14.4545 27.5188V20.7125H16.1515V29.9938ZM22.5152 27.1062C22.5152 27.9312 22.5152 28.55 22.303 28.9625C22.0909 29.5813 21.6667 29.9938 21.0303 29.9938C20.3939 29.9938 19.7576 29.5813 19.3333 28.9625V29.7875H17.6364V17.6188H19.3333V21.5375C19.9697 20.9187 20.3939 20.5062 21.0303 20.5062C21.6667 20.5062 22.0909 20.9187 22.303 21.5375C22.5152 21.95 22.5152 22.5688 22.5152 23.3938V27.1062ZM28.8788 25.6625H25.4848V27.3125C25.4848 28.1375 25.697 28.55 26.3333 28.55C26.7576 28.55 26.9697 28.3438 27.1818 27.9313V26.9H28.8788V28.1375C28.8788 28.55 28.6667 28.7562 28.4545 29.1687C28.0303 29.7875 27.3939 30.2 26.3333 30.2C25.4848 30.2 24.8485 29.7875 24.2121 29.1687C23.7879 28.7562 23.5758 27.9312 23.5758 27.1062V24.0125C23.5758 22.9812 23.7879 22.3625 24 21.95C24.4242 21.3312 25.0606 20.9187 26.1212 20.9187C26.9697 20.9187 27.6061 21.3312 28.0303 21.95C28.4545 22.3625 28.4545 23.1875 28.4545 24.0125V25.6625H28.8788Z" fill="currentColor"/>
</svg>
