<svg width="89" height="36" viewBox="0 0 89 36" fill="none" xmlns="http://www.w3.org/2000/svg">
  <path d="M11.8334 5.84782L11.8467 5.78598L11.882 5.52537L10.2477 5.51654C8.7724 5.50771 8.31965 5.51654 8.27989 5.55408C8.26002 5.57175 7.74985 7.50864 6.84214 11.0158C6.40927 12.6899 6.04486 14.026 6.03161 13.9863C6.01835 13.9465 5.50156 12.0361 4.87875 9.74146C4.50586 8.33847 4.12009 6.93894 3.72148 5.54304C3.69939 5.52096 1.72055 5.51212 0.117154 5.52537C-0.114742 5.52758 -0.245046 5.07263 2.18876 12.8113C2.52446 13.8825 3.03021 15.3997 3.30848 16.1815C3.63093 17.0826 3.86062 17.7805 4.01742 18.3614C4.2957 19.4678 4.30453 20.1613 4.2449 20.9719C4.17423 21.9061 4.1654 28.5096 4.23386 28.62C4.28686 28.7039 7.38102 28.7437 7.67476 28.6642C7.72113 28.6509 7.75205 28.6068 7.77414 28.3572C7.84702 28.143 7.85365 27.2883 7.85365 23.7414V19.2117L8.05241 18.5866C8.18272 18.1781 8.50737 17.1025 8.77681 16.197L9.499 13.7897C10.6673 9.98219 11.7804 6.23873 11.8113 6.0245L11.8356 5.85003L11.8334 5.84782ZM29.1616 11.3427V11.579H29.124L29.1042 18.1008L29.0843 24.4238L28.5785 24.9384C28.0109 25.5148 27.5582 25.7357 27.1474 25.6319C26.6991 25.5192 26.7123 25.6937 26.6748 18.22L26.6394 11.3404H23.3841V11.5768H23.3465V19.0416C23.3465 27.0387 23.3465 27.0343 23.7529 27.836C24.0753 28.4765 24.5479 28.7879 25.3541 28.8939C26.4164 29.0352 27.5626 28.5538 28.6249 27.5202L29.0865 27.0718V27.847C29.0865 28.5162 29.1064 28.6266 29.2278 28.6598C29.4266 28.715 31.8913 28.7194 32.1563 28.6642L32.3772 28.6178V28.3881L32.4147 28.3815V11.2963L29.1638 11.3404L29.1616 11.3427ZM20.9061 14.7129C20.5969 13.39 20.0205 12.4999 19.0686 11.8859C17.5756 10.9208 15.8684 10.817 14.2871 11.5988C13.1342 12.1686 12.39 13.1139 12.0079 14.5009C11.9588 14.6676 11.9241 14.8383 11.9041 15.011C11.8069 15.5013 11.7959 16.2301 11.7694 19.6335C11.7296 24.8765 11.7915 25.4993 12.4474 26.6897C13.0923 27.8581 14.4284 28.715 15.8839 28.8917C16.3212 28.9447 17.209 28.8629 17.7214 28.7194C18.8809 28.3969 19.994 27.4804 20.4865 26.4402C20.7033 26.0237 20.8446 25.572 20.9039 25.1062C21.0474 24.3266 21.0585 23.0633 21.0585 19.8477C21.0585 15.7465 21.0452 15.2981 20.9083 14.7107L20.9061 14.7129ZM17.1935 25.4C16.8578 25.6194 16.449 25.6972 16.0561 25.6164C15.758 25.5524 15.3538 25.0841 15.2301 24.6579C15.0756 24.1256 15.0645 16.7204 15.197 15.2694C15.4179 14.5428 16.0318 14.1629 16.7032 14.344C17.2267 14.4854 17.4939 14.8123 17.6463 15.4991C17.7589 16.0093 17.7722 16.6431 17.7479 20.3733C17.7324 22.8469 17.7236 24.0572 17.6419 24.7065C17.5602 25.1151 17.4232 25.2255 17.1935 25.4022V25.4ZM79.3461 18.4342H80.9185L80.8943 17.0097C80.87 15.7023 80.8501 15.5543 80.6756 15.1987C80.3996 14.64 79.9932 14.3904 79.3483 14.3904C78.5731 14.3904 78.0828 14.7659 77.8509 15.5344C77.7515 15.8613 77.6477 18.1118 77.7228 18.3062C77.7648 18.4144 77.99 18.4342 79.3461 18.4342ZM68.8335 15.1943C68.7399 14.998 68.5893 14.8344 68.4014 14.7249C68.2135 14.6153 67.9969 14.565 67.78 14.5804C67.369 14.6118 66.9775 14.7682 66.6581 15.0287L66.3776 15.2429V25.4773L66.6581 25.6915C67.2941 26.1774 67.992 26.279 68.4735 25.9565C68.673 25.8157 68.818 25.6107 68.8843 25.3757C69.0101 25.0135 69.0212 24.5475 69.0057 20.2408C68.9881 15.7531 68.9792 15.4881 68.8335 15.1943Z" fill="currentColor"/>
  <path d="M88.3348 10.5826C88.0212 6.82592 87.7716 5.60681 86.9986 4.04096C85.9717 1.96714 84.4897 0.87392 82.3784 0.63319C80.7463 0.447673 74.6021 0.184858 68.9196 0.0589712C59.0784 -0.159674 42.8986 0.262156 40.8315 0.789996C39.9089 1.01642 39.0705 1.50231 38.4153 2.19021C37.1101 3.48882 36.3305 5.35283 36.0191 7.93239C35.3057 13.8203 35.2902 20.9318 35.9771 27.034C36.273 29.6577 36.8826 31.3627 38.0266 32.7673C38.74 33.6441 39.9723 34.3884 41.0722 34.6115C41.8452 34.7683 45.7101 34.9847 51.3419 35.1857C52.1811 35.2166 54.4007 35.2674 56.2779 35.3005C60.187 35.369 67.3758 35.3293 71.4859 35.2144C74.251 35.1371 79.2909 34.9317 80.2339 34.8588C80.4989 34.839 81.1129 34.7992 81.5988 34.7727C83.2309 34.6799 84.2689 34.3398 85.2429 33.5735C86.5039 32.5818 87.4801 30.751 87.8931 28.6021C88.284 26.5702 88.5446 22.9504 88.5976 18.8403C88.6418 15.4061 88.5822 13.5553 88.3348 10.5782V10.5826ZM49.1466 9.22218L47.3179 9.24426L47.2384 28.7456L45.6527 28.7655C44.4269 28.7832 44.0537 28.7633 44.025 28.686C44.0029 28.6308 43.9786 24.2336 43.9676 18.9154L43.9477 9.24426L40.3765 9.20009V6.15231L50.9311 6.19428L50.9752 9.19788L49.1466 9.21997V9.22218ZM60.3593 20.3996V28.7854H57.4705V27.902C57.4705 27.2372 57.4463 27.0185 57.3667 27.0185C57.3093 27.0185 57.0487 27.2372 56.7859 27.5044C56.2139 28.0853 55.5381 28.5513 54.9594 28.7677C53.7624 29.216 52.6272 28.9532 52.1436 28.1206C51.6996 27.3587 51.693 27.1864 51.693 19.2754V12.0093H54.5796L54.6017 18.8514C54.6237 25.5742 54.626 25.6978 54.7872 25.9717C55.0014 26.3339 55.3261 26.4333 55.8429 26.2897C56.1476 26.2058 56.3552 26.0578 56.8477 25.5675L57.4705 24.9491V12.0093H60.3593V20.3951V20.3996ZM71.6273 27.5883C71.3733 28.1559 70.8057 28.7103 70.3397 28.8472C69.1272 29.205 68.1532 28.9135 67.0291 27.8556C66.6801 27.5265 66.3555 27.2615 66.3069 27.2615C66.2473 27.2615 66.2163 27.5177 66.2163 28.0234V28.7854H63.3276V6.15231H66.2163V9.84498C66.2163 11.8746 66.2428 13.5377 66.276 13.5377C66.3091 13.5377 66.6139 13.2682 66.954 12.9413C67.7358 12.1882 68.3873 11.857 69.2155 11.7951C70.693 11.6825 71.5742 12.4444 71.9762 14.1803C72.1021 14.7214 72.1131 15.3398 72.1131 20.3598C72.1131 26.473 72.1153 26.4995 71.6273 27.5883ZM83.8515 24.2314C83.8365 24.7702 83.7797 25.307 83.6814 25.837C83.2795 27.3255 82.2105 28.3812 80.6646 28.8141C78.5841 29.3971 76.2917 28.443 75.3773 26.6122C74.865 25.5852 74.8451 25.3798 74.8451 20.3598C74.8451 16.2674 74.8605 15.7639 74.9908 15.2051C75.3619 13.626 76.2806 12.6034 77.8376 12.0358C78.2882 11.8724 78.7586 11.7863 79.229 11.7774C80.9097 11.7421 82.5749 12.6454 83.2751 14.1163C83.7455 15.1079 83.8051 15.5342 83.8515 18.3302L83.8934 20.8391L77.7338 20.881L77.7118 22.5661C77.6786 24.9447 77.8399 25.6757 78.4825 26.1064C79.0214 26.4708 79.8518 26.4421 80.3024 26.0468C80.7264 25.6758 80.8457 25.276 80.8876 24.1099L80.9252 23.0873H83.9001L83.8515 24.2314Z" fill="currentColor"/>
</svg>
